<svg width="10" height="21" viewBox="0 0 10 21" fill="none" xmlns="http://www.w3.org/2000/svg">
<path fill-rule="evenodd" clip-rule="evenodd" d="M9.38268 0.58461C9.75636 0.756589 10 1.16174 10 1.61114L10 19.3889C10 19.8383 9.75636 20.2434 9.38268 20.4154C9.00901 20.5874 8.57889 20.4923 8.29289 20.1745L0.292892 11.2857C-0.0976315 10.8518 -0.0976315 10.1482 0.292892 9.71433L8.29289 0.825468C8.57889 0.507694 9.00901 0.412632 9.38268 0.58461Z" fill="#000D81"/>
<path fill-rule="evenodd" clip-rule="evenodd" d="M9.38268 0.58461C9.75636 0.756589 10 1.16174 10 1.61114L10 19.3889C10 19.8383 9.75636 20.2434 9.38268 20.4154C9.00901 20.5874 8.57889 20.4923 8.29289 20.1745L0.292892 11.2857C-0.0976315 10.8518 -0.0976315 10.1482 0.292892 9.71433L8.29289 0.825468C8.57889 0.507694 9.00901 0.412632 9.38268 0.58461Z" fill="white" fill-opacity="0.2"/>
</svg>
