<svg width="10" height="21" viewBox="0 0 10 21" fill="none" xmlns="http://www.w3.org/2000/svg">
<path fill-rule="evenodd" clip-rule="evenodd" d="M0.617317 20.4154C0.243642 20.2434 0 19.8383 0 19.3889L0 1.61114C0 1.16174 0.243642 0.756588 0.617317 0.584612C0.990991 0.412634 1.42111 0.507694 1.70711 0.825468L9.70711 9.71433C10.0976 10.1482 10.0976 10.8518 9.70711 11.2857L1.70711 20.1745C1.42111 20.4923 0.990991 20.5874 0.617317 20.4154Z" fill="#000D81"/>
<path fill-rule="evenodd" clip-rule="evenodd" d="M0.617317 20.4154C0.243642 20.2434 0 19.8383 0 19.3889L0 1.61114C0 1.16174 0.243642 0.756588 0.617317 0.584612C0.990991 0.412634 1.42111 0.507694 1.70711 0.825468L9.70711 9.71433C10.0976 10.1482 10.0976 10.8518 9.70711 11.2857L1.70711 20.1745C1.42111 20.4923 0.990991 20.5874 0.617317 20.4154Z" fill="white" fill-opacity="0.2"/>
</svg>
