<svg width="12" height="12" viewBox="0 0 12 12" fill="none" xmlns="http://www.w3.org/2000/svg">
<path fill-rule="evenodd" clip-rule="evenodd" d="M1.04936 1.05025C1.33215 0.767459 1.79065 0.767459 2.07344 1.05025L10.9489 9.92566C11.2316 10.2085 11.2316 10.667 10.9489 10.9497C10.6661 11.2325 10.2076 11.2325 9.92477 10.9497L1.04936 2.07434C0.766563 1.79155 0.766563 1.33305 1.04936 1.05025Z" fill="white"/>
<path fill-rule="evenodd" clip-rule="evenodd" d="M1.04936 10.9497C0.766563 10.667 0.766563 10.2085 1.04936 9.92566L9.92477 1.05025C10.2076 0.767459 10.6661 0.767459 10.9489 1.05025C11.2316 1.33305 11.2316 1.79155 10.9489 2.07434L2.07344 10.9497C1.79065 11.2325 1.33215 11.2325 1.04936 10.9497Z" fill="white"/>
</svg>
