<svg width="24" height="24" viewBox="0 0 24 24" fill="none" xmlns="http://www.w3.org/2000/svg">
<path fill-rule="evenodd" clip-rule="evenodd" d="M12 19C15.866 19 19 15.866 19 12C19 8.13401 15.866 5 12 5C8.13401 5 5 8.13401 5 12C5 15.866 8.13401 19 12 19ZM18 12C18 15.3137 15.3137 18 12 18C8.68629 18 6 15.3137 6 12C6 8.68629 8.68629 6 12 6C15.3137 6 18 8.68629 18 12ZM12 16.6667C14.5773 16.6667 16.6667 14.5773 16.6667 12C16.6667 9.42267 14.5773 7.33333 12 7.33333C9.42267 7.33333 7.33333 9.42267 7.33333 12C7.33333 14.5773 9.42267 16.6667 12 16.6667Z" fill="#CECECE"/>
</svg>
