<svg width="18" height="18" viewBox="0 0 18 18" fill="none" xmlns="http://www.w3.org/2000/svg">
<path fill-rule="evenodd" clip-rule="evenodd" d="M9 0C9.5142 0 9.93103 0.416838 9.93103 0.931034V17.069C9.93103 17.5832 9.5142 18 9 18C8.4858 18 8.06896 17.5832 8.06896 17.069V0.931034C8.06896 0.416838 8.4858 0 9 0Z" fill="#FD0000"/>
<path fill-rule="evenodd" clip-rule="evenodd" d="M0 9C0 8.4858 0.416838 8.06896 0.931034 8.06896H17.069C17.5832 8.06896 18 8.4858 18 9C18 9.5142 17.5832 9.93103 17.069 9.93103H0.931034C0.416838 9.93103 0 9.5142 0 9Z" fill="#FD0000"/>
<path fill-rule="evenodd" clip-rule="evenodd" d="M8.99993 15.1714C12.4083 15.1714 15.1714 12.4084 15.1714 8.99999C15.1714 5.59161 12.4083 2.82856 8.99993 2.82856C5.59154 2.82856 2.8285 5.59161 2.8285 8.99999C2.8285 12.4084 5.59154 15.1714 8.99993 15.1714ZM8.99993 16.7143C13.2604 16.7143 16.7142 13.2605 16.7142 8.99999C16.7142 4.73951 13.2604 1.28571 8.99993 1.28571C4.73945 1.28571 1.28564 4.73951 1.28564 8.99999C1.28564 13.2605 4.73945 16.7143 8.99993 16.7143Z" fill="#FD0000"/>
</svg>