<svg width="426" height="509" viewBox="0 0 426 509" fill="none" xmlns="http://www.w3.org/2000/svg">
<path d="M104 62C77.6396 143.034 62.8604 188.466 36.5 269.5C50.7541 264.228 73 256 73 256L125 87C125 87 112.201 71.7631 104 62Z" fill="url(#paint0_linear_28_91)"/>
<path d="M162 45.5L152 51.5L125 87L73 256L109 247L162 45.5Z" fill="url(#paint1_linear_28_91)"/>
<path d="M152 44.5C152 44.5 122.745 55.1658 104 62C112.201 71.7631 125 87 125 87L152 51.5V44.5Z" fill="url(#paint2_linear_28_91)"/>
<path d="M109 247L73 256L99 278.5L109 247Z" fill="url(#paint3_linear_28_91)"/>
<path d="M164.5 236L109 247L99 278.5L140.5 269.5L164.5 236Z" fill="url(#paint4_linear_28_91)"/>
<path d="M156 293.5L164.5 236L140.5 269.5L156 293.5Z" fill="url(#paint5_linear_28_91)"/>
<path fill-rule="evenodd" clip-rule="evenodd" d="M73 256L99 278.5L94.5 315.5C94.5 315.5 59.1504 287.464 36.5 269.5C50.7541 264.228 73 256 73 256Z" fill="url(#paint6_linear_28_91)"/>
<path d="M94.5 315.5L156 293.5L140.5 269.5L99 278.5L94.5 315.5Z" fill="url(#paint7_linear_28_91)"/>
<path d="M230 0L185.5 38L190.5 91L230 0Z" fill="url(#paint8_linear_28_91)"/>
<g clip-path="url(#paint9_diamond_28_91_clip_path)" data-figma-skip-parse="true"><g transform="matrix(0.0075 0.06 -0.06 0.0075 235.5 51.5)"><rect x="0" y="0" width="7908.72" height="4820.51" fill="url(#paint9_diamond_28_91)" opacity="1" shape-rendering="crispEdges"/><rect x="0" y="0" width="7908.72" height="4820.51" transform="scale(1 -1)" fill="url(#paint9_diamond_28_91)" opacity="1" shape-rendering="crispEdges"/><rect x="0" y="0" width="7908.72" height="4820.51" transform="scale(-1 1)" fill="url(#paint9_diamond_28_91)" opacity="1" shape-rendering="crispEdges"/><rect x="0" y="0" width="7908.72" height="4820.51" transform="scale(-1)" fill="url(#paint9_diamond_28_91)" opacity="1" shape-rendering="crispEdges"/></g></g><path d="M230 0L190.5 91L285.5 72L230 0Z" data-figma-gradient-fill="{&#34;type&#34;:&#34;GRADIENT_DIAMOND&#34;,&#34;stops&#34;:[{&#34;color&#34;:{&#34;r&#34;:0.78333336114883423,&#34;g&#34;:0.94264698028564453,&#34;b&#34;:1.0,&#34;a&#34;:1.0},&#34;position&#34;:0.0},{&#34;color&#34;:{&#34;r&#34;:0.55416667461395264,&#34;g&#34;:0.88148283958435059,&#34;b&#34;:1.0,&#34;a&#34;:1.0},&#34;position&#34;:0.41999998688697815},{&#34;color&#34;:{&#34;r&#34;:0.48750001192092896,&#34;g&#34;:0.86333334445953369,&#34;b&#34;:1.0,&#34;a&#34;:1.0},&#34;position&#34;:0.81999999284744263}],&#34;stopsVar&#34;:[{&#34;color&#34;:{&#34;r&#34;:0.78333336114883423,&#34;g&#34;:0.94264698028564453,&#34;b&#34;:1.0,&#34;a&#34;:1.0},&#34;position&#34;:0.0},{&#34;color&#34;:{&#34;r&#34;:0.55416667461395264,&#34;g&#34;:0.88148283958435059,&#34;b&#34;:1.0,&#34;a&#34;:1.0},&#34;position&#34;:0.41999998688697815},{&#34;color&#34;:{&#34;r&#34;:0.48750001192092896,&#34;g&#34;:0.86333334445953369,&#34;b&#34;:1.0,&#34;a&#34;:1.0},&#34;position&#34;:0.81999999284744263}],&#34;transform&#34;:{&#34;m00&#34;:14.999995231628418,&#34;m01&#34;:-120.00000762939453,&#34;m02&#34;:288.0,&#34;m10&#34;:120.00000762939453,&#34;m11&#34;:14.999998092651367,&#34;m12&#34;:-16.000003814697266},&#34;opacity&#34;:1.0,&#34;blendMode&#34;:&#34;NORMAL&#34;,&#34;visible&#34;:true}"/>
<path d="M185.5 38L137.5 221L168 192.5L190.5 91L185.5 38Z" fill="url(#paint10_linear_28_91)"/>
<path d="M188.5 211.5L208.5 118L190.5 91L168 192.5L188.5 211.5Z" fill="url(#paint11_linear_28_91)"/>
<g clip-path="url(#paint12_diamond_28_91_clip_path)" data-figma-skip-parse="true"><g transform="matrix(0.02 0.021 -0.021 0.02 168 195)"><rect x="0" y="0" width="14012.5" height="11699.2" fill="url(#paint12_diamond_28_91)" opacity="1" shape-rendering="crispEdges"/><rect x="0" y="0" width="14012.5" height="11699.2" transform="scale(1 -1)" fill="url(#paint12_diamond_28_91)" opacity="1" shape-rendering="crispEdges"/><rect x="0" y="0" width="14012.5" height="11699.2" transform="scale(-1 1)" fill="url(#paint12_diamond_28_91)" opacity="1" shape-rendering="crispEdges"/><rect x="0" y="0" width="14012.5" height="11699.2" transform="scale(-1)" fill="url(#paint12_diamond_28_91)" opacity="1" shape-rendering="crispEdges"/></g></g><path d="M137.5 221L188.5 211.5L168 192.5L137.5 221Z" data-figma-gradient-fill="{&#34;type&#34;:&#34;GRADIENT_DIAMOND&#34;,&#34;stops&#34;:[{&#34;color&#34;:{&#34;r&#34;:0.61055552959442139,&#34;g&#34;:0.84725922346115112,&#34;b&#34;:0.93333333730697632,&#34;a&#34;:1.0},&#34;position&#34;:0.0},{&#34;color&#34;:{&#34;r&#34;:0.20392157137393951,&#34;g&#34;:0.57254904508590698,&#34;b&#34;:0.70588237047195435,&#34;a&#34;:1.0},&#34;position&#34;:1.0}],&#34;stopsVar&#34;:[{&#34;color&#34;:{&#34;r&#34;:0.61055552959442139,&#34;g&#34;:0.84725922346115112,&#34;b&#34;:0.93333333730697632,&#34;a&#34;:1.0},&#34;position&#34;:0.0},{&#34;color&#34;:{&#34;r&#34;:0.20392157137393951,&#34;g&#34;:0.57254904508590698,&#34;b&#34;:0.70588237047195435,&#34;a&#34;:1.0},&#34;position&#34;:1.0}],&#34;transform&#34;:{&#34;m00&#34;:39.999988555908203,&#34;m01&#34;:-41.999973297119141,&#34;m02&#34;:169.0,&#34;m10&#34;:41.999992370605469,&#34;m11&#34;:39.999977111816406,&#34;m12&#34;:154.00003051757812},&#34;opacity&#34;:1.0,&#34;blendMode&#34;:&#34;NORMAL&#34;,&#34;visible&#34;:true}"/>
<path d="M208.5 118L272.5 97L285.5 72L190.5 91L208.5 118Z" fill="url(#paint13_linear_28_91)"/>
<path d="M285.5 72L291 44.5L230 0L285.5 72Z" fill="url(#paint14_linear_28_91)"/>
<path d="M314 66.5L291 44.5L285.5 72L314 66.5Z" fill="url(#paint15_linear_28_91)"/>
<path d="M314 95V66.5L285.5 72L318 129.5L314 95Z" fill="url(#paint16_linear_28_91)"/>
<path d="M285.5 72L272.5 97L318 129.5L285.5 72Z" fill="url(#paint17_linear_28_91)"/>
<path d="M272.5 97L321.5 207.5L327.5 184.5L318 129.5L272.5 97Z" fill="url(#paint18_linear_28_91)"/>
<g clip-path="url(#paint19_diamond_28_91_clip_path)" data-figma-skip-parse="true"><g transform="matrix(-0.003 -0.032 0.0268083 -0.00251328 317.5 128)"><rect x="0" y="0" width="12136" height="13099.7" fill="url(#paint19_diamond_28_91)" opacity="1" shape-rendering="crispEdges"/><rect x="0" y="0" width="12136" height="13099.7" transform="scale(1 -1)" fill="url(#paint19_diamond_28_91)" opacity="1" shape-rendering="crispEdges"/><rect x="0" y="0" width="12136" height="13099.7" transform="scale(-1 1)" fill="url(#paint19_diamond_28_91)" opacity="1" shape-rendering="crispEdges"/><rect x="0" y="0" width="12136" height="13099.7" transform="scale(-1)" fill="url(#paint19_diamond_28_91)" opacity="1" shape-rendering="crispEdges"/></g></g><path d="M337.5 121.5L314 95L318 129.5L337.5 121.5Z" data-figma-gradient-fill="{&#34;type&#34;:&#34;GRADIENT_DIAMOND&#34;,&#34;stops&#34;:[{&#34;color&#34;:{&#34;r&#34;:0.56250,&#34;g&#34;:0.88221156597137451,&#34;b&#34;:1.0,&#34;a&#34;:1.0},&#34;position&#34;:0.0},{&#34;color&#34;:{&#34;r&#34;:0.35048609972000122,&#34;g&#34;:0.69056862592697144,&#34;b&#34;:0.81666666269302368,&#34;a&#34;:1.0},&#34;position&#34;:1.0}],&#34;stopsVar&#34;:[{&#34;color&#34;:{&#34;r&#34;:0.56250,&#34;g&#34;:0.88221156597137451,&#34;b&#34;:1.0,&#34;a&#34;:1.0},&#34;position&#34;:0.0},{&#34;color&#34;:{&#34;r&#34;:0.35048609972000122,&#34;g&#34;:0.69056862592697144,&#34;b&#34;:0.81666666269302368,&#34;a&#34;:1.0},&#34;position&#34;:1.0}],&#34;transform&#34;:{&#34;m00&#34;:-6.0000081062316895,&#34;m01&#34;:53.616527557373047,&#34;m02&#34;:293.69174194335938,&#34;m10&#34;:-64.000007629394531,&#34;m11&#34;:-5.0265560150146484,&#34;m12&#34;:162.51327514648438},&#34;opacity&#34;:1.0,&#34;blendMode&#34;:&#34;NORMAL&#34;,&#34;visible&#34;:true}"/>
<path d="M340 162L337.5 121.5L318 129.5L327.5 184.5L340 162Z" fill="url(#paint20_linear_28_91)"/>
<path fill-rule="evenodd" clip-rule="evenodd" d="M321.5 207.5L327.5 184.5L346 201L321.5 207.5Z" fill="#5698B0"/>
<path d="M346 201L340 162L327.5 184.5L346 201Z" fill="#5CAAC7"/>
<path d="M218.5 136.5L192.5 278.5L216 249L242 146L218.5 136.5Z" fill="url(#paint21_linear_28_91)"/>
<path d="M192.5 278.5L231 259L216 249L192.5 278.5Z" fill="url(#paint22_linear_28_91)"/>
<path d="M231 259L246 170L242 146L216 249L231 259Z" fill="url(#paint23_linear_28_91)"/>
<g clip-path="url(#paint24_diamond_28_91_clip_path)" data-figma-skip-parse="true"><g transform="matrix(0.013 -0.027 0.0176314 0.00848922 242 145)"><rect x="0" y="0" width="14477.2" height="16598.5" fill="url(#paint24_diamond_28_91)" opacity="1" shape-rendering="crispEdges"/><rect x="0" y="0" width="14477.2" height="16598.5" transform="scale(1 -1)" fill="url(#paint24_diamond_28_91)" opacity="1" shape-rendering="crispEdges"/><rect x="0" y="0" width="14477.2" height="16598.5" transform="scale(-1 1)" fill="url(#paint24_diamond_28_91)" opacity="1" shape-rendering="crispEdges"/><rect x="0" y="0" width="14477.2" height="16598.5" transform="scale(-1)" fill="url(#paint24_diamond_28_91)" opacity="1" shape-rendering="crispEdges"/></g></g><path d="M258.5 118L218.5 136.5L242 146L258.5 118Z" data-figma-gradient-fill="{&#34;type&#34;:&#34;GRADIENT_DIAMOND&#34;,&#34;stops&#34;:[{&#34;color&#34;:{&#34;r&#34;:0.58583331108093262,&#34;g&#34;:0.83455556631088257,&#34;b&#34;:0.92500001192092896,&#34;a&#34;:1.0},&#34;position&#34;:0.0},{&#34;color&#34;:{&#34;r&#34;:0.12590277194976807,&#34;g&#34;:0.63246291875839233,&#34;b&#34;:0.81666666269302368,&#34;a&#34;:1.0},&#34;position&#34;:1.0}],&#34;stopsVar&#34;:[{&#34;color&#34;:{&#34;r&#34;:0.58583331108093262,&#34;g&#34;:0.83455556631088257,&#34;b&#34;:0.92500001192092896,&#34;a&#34;:1.0},&#34;position&#34;:0.0},{&#34;color&#34;:{&#34;r&#34;:0.12590277194976807,&#34;g&#34;:0.63246291875839233,&#34;b&#34;:0.81666666269302368,&#34;a&#34;:1.0},&#34;position&#34;:1.0}],&#34;transform&#34;:{&#34;m00&#34;:26.000007629394531,&#34;m01&#34;:35.262889862060547,&#34;m02&#34;:211.36853027343750,&#34;m10&#34;:-53.999992370605469,&#34;m11&#34;:16.978435516357422,&#34;m12&#34;:163.51075744628906},&#34;opacity&#34;:1.0,&#34;blendMode&#34;:&#34;NORMAL&#34;,&#34;visible&#34;:true}"/>
<path d="M246 170L309.5 284.5L316 262.5L242 146L246 170Z" fill="url(#paint25_linear_28_91)"/>
<path d="M321.5 243L258.5 118L242 146L316 262.5L321.5 243Z" fill="url(#paint26_linear_28_91)"/>
<path d="M359.5 144.5L353 236L368.5 238.5L371 170L359.5 144.5Z" fill="url(#paint27_linear_28_91)"/>
<path d="M384 162L359.5 144.5L371 170L384 162Z" fill="url(#paint28_linear_28_91)"/>
<path d="M384 238.5V162L371 170L368.5 238.5H384Z" fill="url(#paint29_linear_28_91)"/>
<path d="M362 269.5L384 238.5H368.5L357.5 252.5L362 269.5Z" fill="url(#paint30_linear_28_91)"/>
<path d="M357.5 252.5L368.5 238.5L353 236L357.5 252.5Z" fill="url(#paint31_linear_28_91)"/>
<path d="M353 236L321.5 243L316 262.5L357.5 252.5L353 236Z" fill="url(#paint32_linear_28_91)"/>
<path d="M309.5 284.5L362 269.5L357.5 252.5L316 262.5L309.5 284.5Z" fill="url(#paint33_linear_28_91)"/>
<path d="M214 320L176 296.5L162 320L200 340L214 320Z" fill="url(#paint34_linear_28_91)"/>
<path d="M176 296.5L118.5 324.5L162 320L176 296.5Z" fill="url(#paint35_linear_28_91)"/>
<path d="M250 386L214 320L200 340L228.5 386H250Z" fill="url(#paint36_linear_28_91)"/>
<path d="M228.5 423.5L250 386H228.5L212 420L228.5 423.5Z" fill="url(#paint37_linear_28_91)"/>
<path d="M208 379.5L200 409.5L212 420L228.5 386L208 379.5Z" fill="url(#paint38_linear_28_91)"/>
<path d="M200 409.5L121 369.5L164 456.5L206 446L200 409.5Z" fill="url(#paint39_linear_28_91)"/>
<path d="M206 446L212 420L200 409.5L206 446Z" fill="url(#paint40_linear_28_91)"/>
<path d="M226.5 464.5L228.5 423.5L212 420L206 446L226.5 464.5Z" fill="url(#paint41_linear_28_91)"/>
<path d="M186 493.5L226.5 464.5L206 446L164 456.5L186 493.5Z" fill="url(#paint42_linear_28_91)"/>
<path d="M145 495.5L186 493.5L164 456.5L145 495.5Z" fill="url(#paint43_linear_28_91)"/>
<path d="M124.5 448L145 495.5L164 456.5L124.5 448Z" fill="url(#paint44_linear_28_91)"/>
<path d="M70.5 399.5L124.5 448L164 456.5L32.5 343L70.5 399.5Z" fill="url(#paint45_linear_28_91)"/>
<path d="M32.5 343L164 456.5L121 369.5L32.5 343Z" fill="url(#paint46_linear_28_91)"/>
<path d="M30.5 291L0 353.5L32.5 343L30.5 291Z" fill="url(#paint47_linear_28_91)"/>
<path d="M0 353.5L16.5 386L32.5 343L0 353.5Z" fill="url(#paint48_linear_28_91)"/>
<path d="M16.5 386L70.5 399.5L32.5 343L16.5 386Z" fill="url(#paint49_linear_28_91)"/>
<path d="M121 369.5L30.5 291L32.5 343L121 369.5Z" fill="url(#paint50_linear_28_91)"/>
<path d="M377 273.5L316 302L332 313L373 294.5L377 273.5Z" fill="url(#paint51_linear_28_91)"/>
<path d="M392.5 304L377 273.5L373 294.5L392.5 304Z" fill="url(#paint52_linear_28_91)"/>
<path d="M316 302L330 331.5L332 313L316 302Z" fill="url(#paint53_linear_28_91)"/>
<path d="M330 331.5L392.5 304L373 294.5L332 313L330 331.5Z" fill="url(#paint54_linear_28_91)"/>
<path d="M402 320L339 346H369.5L402 320Z" fill="url(#paint55_linear_28_91)"/>
<path d="M339 346L335.5 409.5L366 386L369.5 346H339Z" fill="url(#paint56_linear_28_91)"/>
<path d="M392.5 386L402 320L369.5 346L366 386H392.5Z" fill="url(#paint57_linear_28_91)"/>
<path d="M335.5 409.5L392.5 386H366L335.5 409.5Z" fill="url(#paint58_linear_28_91)"/>
<path d="M206 292.5L268 375L291.5 367.5L252.5 296.5L206 292.5Z" fill="url(#paint59_linear_28_91)"/>
<path d="M246 273.5L206 292.5L252.5 296.5L246 273.5Z" fill="#7CDCFF"/>
<path d="M254 236L246 273.5L252.5 296.5L254 236Z" fill="url(#paint60_linear_28_91)"/>
<path d="M321.5 359.5L254 236L252.5 296.5L291.5 367.5L321.5 359.5Z" fill="url(#paint61_linear_28_91)"/>
<path d="M313.5 429L321.5 359.5L291.5 367.5L281 452L313.5 429Z" fill="url(#paint62_linear_28_91)"/>
<path d="M268 375L252.5 477.5L281 452L291.5 367.5L268 375Z" fill="url(#paint63_linear_28_91)"/>
<path d="M252.5 477.5L263.5 505L316 469.5L281 452L252.5 477.5Z" fill="url(#paint64_linear_28_91)"/>
<path d="M263.5 505L324 508.5L316 469.5L263.5 505Z" fill="url(#paint65_linear_28_91)"/>
<path d="M324 508.5L356.5 485.5L349.5 442.5L316 469.5L324 508.5Z" fill="url(#paint66_linear_28_91)"/>
<path d="M402 399.5L313.5 429L349.5 442.5L402 417V399.5Z" fill="url(#paint67_linear_28_91)"/>
<path d="M426 423.5L402 399.5V417L426 423.5Z" fill="url(#paint68_linear_28_91)"/>
<path d="M356.5 485.5L382 448L349.5 442.5L356.5 485.5Z" fill="url(#paint69_linear_28_91)"/>
<path d="M382 448L426 423.5L402 417L349.5 442.5L382 448Z" fill="url(#paint70_linear_28_91)"/>
<path d="M281 452L316 469.5L313.5 429L281 452Z" fill="url(#paint71_linear_28_91)"/>
<path d="M316 469.5L349.5 442.5L313.5 429L316 469.5Z" fill="url(#paint72_linear_28_91)"/>
<path d="M118.5 324.5L208 379.5L228.5 386L200 340L162 320L118.5 324.5Z" fill="url(#paint73_linear_28_91)"/>
<defs>
<clipPath id="paint9_diamond_28_91_clip_path"><path d="M230 0L190.5 91L285.5 72L230 0Z"/></clipPath><clipPath id="paint12_diamond_28_91_clip_path"><path d="M137.5 221L188.5 211.5L168 192.5L137.5 221Z"/></clipPath><clipPath id="paint19_diamond_28_91_clip_path"><path d="M337.5 121.5L314 95L318 129.5L337.5 121.5Z"/></clipPath><clipPath id="paint24_diamond_28_91_clip_path"><path d="M258.5 118L218.5 136.5L242 146L258.5 118Z"/></clipPath><linearGradient id="paint0_linear_28_91" x1="106" y1="142.5" x2="72.5" y2="131" gradientUnits="userSpaceOnUse">
<stop stop-color="#82D7F4"/>
<stop offset="1" stop-color="#2F8DAF"/>
</linearGradient>
<linearGradient id="paint1_linear_28_91" x1="115.5" y1="133.5" x2="148.5" y2="143" gradientUnits="userSpaceOnUse">
<stop stop-color="#99E4FF"/>
<stop offset="1" stop-color="#3995B7"/>
</linearGradient>
<linearGradient id="paint2_linear_28_91" x1="125.5" y1="77.5" x2="125.5" y2="27" gradientUnits="userSpaceOnUse">
<stop stop-color="#7CDCFF"/>
<stop offset="1" stop-color="#4B8499"/>
</linearGradient>
<linearGradient id="paint3_linear_28_91" x1="87" y1="263.5" x2="108" y2="247.5" gradientUnits="userSpaceOnUse">
<stop stop-color="#B3EBFF"/>
<stop offset="1" stop-color="#58AECE"/>
</linearGradient>
<linearGradient id="paint4_linear_28_91" x1="124.5" y1="273" x2="123" y2="243.5" gradientUnits="userSpaceOnUse">
<stop stop-color="#99E3FE"/>
<stop offset="1" stop-color="#5DB2D1"/>
</linearGradient>
<linearGradient id="paint5_linear_28_91" x1="133.5" y1="266.5" x2="191.5" y2="266.5" gradientUnits="userSpaceOnUse">
<stop offset="0.0694329" stop-color="#CCF1FF"/>
<stop offset="0.293602" stop-color="#85D3EF"/>
<stop offset="0.716033" stop-color="#68B9D6"/>
<stop offset="0.996694" stop-color="#70C6E6"/>
</linearGradient>
<linearGradient id="paint6_linear_28_91" x1="87" y1="270" x2="67" y2="294" gradientUnits="userSpaceOnUse">
<stop stop-color="#97E1FD"/>
<stop offset="1" stop-color="#63B7D6"/>
</linearGradient>
<linearGradient id="paint7_linear_28_91" x1="122.5" y1="274.5" x2="130.5" y2="302.5" gradientUnits="userSpaceOnUse">
<stop stop-color="#ADE7FC"/>
<stop offset="1" stop-color="#5FB4D3"/>
</linearGradient>
<linearGradient id="paint8_linear_28_91" x1="213" y1="45.5" x2="175.5" y2="32.5" gradientUnits="userSpaceOnUse">
<stop offset="0.131469" stop-color="#A3E6FF"/>
<stop offset="0.911952" stop-color="#2F8DAF"/>
</linearGradient>
<linearGradient id="paint9_diamond_28_91" x1="0" y1="0" x2="500" y2="500" gradientUnits="userSpaceOnUse">
<stop stop-color="#C8F0FF"/>
<stop offset="0.42" stop-color="#8DE1FF"/>
<stop offset="0.82" stop-color="#7CDCFF"/>
</linearGradient>
<linearGradient id="paint10_linear_28_91" x1="182" y1="131" x2="159" y2="126" gradientUnits="userSpaceOnUse">
<stop offset="0.0782281" stop-color="#A4E7FF"/>
<stop offset="1" stop-color="#2F8DAF"/>
</linearGradient>
<linearGradient id="paint11_linear_28_91" x1="182" y1="143" x2="206" y2="149" gradientUnits="userSpaceOnUse">
<stop stop-color="#7CDCFF"/>
<stop offset="1" stop-color="#2F8DAF"/>
</linearGradient>
<linearGradient id="paint12_diamond_28_91" x1="0" y1="0" x2="500" y2="500" gradientUnits="userSpaceOnUse">
<stop stop-color="#9CD8EE"/>
<stop offset="1" stop-color="#3492B4"/>
</linearGradient>
<linearGradient id="paint13_linear_28_91" x1="237.5" y1="86.5" x2="242.5" y2="108.5" gradientUnits="userSpaceOnUse">
<stop stop-color="#8DE1FF"/>
<stop offset="1" stop-color="#529AB4"/>
</linearGradient>
<linearGradient id="paint14_linear_28_91" x1="259" y1="41.5" x2="278.5" y2="28.5" gradientUnits="userSpaceOnUse">
<stop stop-color="#7CDCFF"/>
<stop offset="1" stop-color="#2F8DAF"/>
</linearGradient>
<linearGradient id="paint15_linear_28_91" x1="292" y1="65.5" x2="314" y2="47.5" gradientUnits="userSpaceOnUse">
<stop stop-color="#6BCAED"/>
<stop offset="1" stop-color="#3D7387"/>
</linearGradient>
<linearGradient id="paint16_linear_28_91" x1="299.5" y1="90.5" x2="319" y2="84" gradientUnits="userSpaceOnUse">
<stop stop-color="#6BCAED"/>
<stop offset="1" stop-color="#3D7387"/>
</linearGradient>
<linearGradient id="paint17_linear_28_91" x1="298" y1="91.5" x2="275" y2="96.5" gradientUnits="userSpaceOnUse">
<stop stop-color="#9CE0F9"/>
<stop offset="1" stop-color="#56B5D7"/>
</linearGradient>
<linearGradient id="paint18_linear_28_91" x1="317" y1="131" x2="293" y2="147" gradientUnits="userSpaceOnUse">
<stop stop-color="#7CDCFF"/>
<stop offset="1" stop-color="#4B8499"/>
</linearGradient>
<linearGradient id="paint19_diamond_28_91" x1="0" y1="0" x2="500" y2="500" gradientUnits="userSpaceOnUse">
<stop stop-color="#8FE1FF"/>
<stop offset="1" stop-color="#59B0D0"/>
</linearGradient>
<linearGradient id="paint20_linear_28_91" x1="326" y1="126.5" x2="330" y2="238.5" gradientUnits="userSpaceOnUse">
<stop stop-color="#6BCAED"/>
<stop offset="0.53735" stop-color="#5AA4C0"/>
<stop offset="1" stop-color="#4B8499"/>
</linearGradient>
<linearGradient id="paint21_linear_28_91" x1="232.5" y1="198" x2="205.5" y2="197" gradientUnits="userSpaceOnUse">
<stop stop-color="#82D7F4"/>
<stop offset="1" stop-color="#3F9DBF"/>
</linearGradient>
<linearGradient id="paint22_linear_28_91" x1="218" y1="247.5" x2="217.5" y2="273" gradientUnits="userSpaceOnUse">
<stop stop-color="#7CDCFF"/>
<stop offset="1" stop-color="#3492B4"/>
</linearGradient>
<linearGradient id="paint23_linear_28_91" x1="229.5" y1="199" x2="242" y2="203" gradientUnits="userSpaceOnUse">
<stop stop-color="#7CDCFF"/>
<stop offset="1" stop-color="#3A98BB"/>
</linearGradient>
<linearGradient id="paint24_diamond_28_91" x1="0" y1="0" x2="500" y2="500" gradientUnits="userSpaceOnUse">
<stop stop-color="#95D5EC"/>
<stop offset="1" stop-color="#20A1D0"/>
</linearGradient>
<linearGradient id="paint25_linear_28_91" x1="277" y1="200" x2="263" y2="208.5" gradientUnits="userSpaceOnUse">
<stop stop-color="#85CCE6"/>
<stop offset="1" stop-color="#4B8499"/>
</linearGradient>
<linearGradient id="paint26_linear_28_91" x1="278.5" y1="199" x2="295.5" y2="190" gradientUnits="userSpaceOnUse">
<stop stop-color="#93E2FF"/>
<stop offset="1" stop-color="#25A2CF"/>
</linearGradient>
<linearGradient id="paint27_linear_28_91" x1="370" y1="195" x2="354.5" y2="193.5" gradientUnits="userSpaceOnUse">
<stop stop-color="#88D0EB"/>
<stop offset="1" stop-color="#29ABDA"/>
</linearGradient>
<linearGradient id="paint28_linear_28_91" x1="371" y1="170" x2="379" y2="152" gradientUnits="userSpaceOnUse">
<stop stop-color="#90CCE2"/>
<stop offset="1" stop-color="#1697C7"/>
</linearGradient>
<linearGradient id="paint29_linear_28_91" x1="369" y1="197" x2="385" y2="197.5" gradientUnits="userSpaceOnUse">
<stop stop-color="#7CDCFF"/>
<stop offset="1" stop-color="#299AC4"/>
</linearGradient>
<linearGradient id="paint30_linear_28_91" x1="363" y1="244.5" x2="375" y2="253.5" gradientUnits="userSpaceOnUse">
<stop stop-color="#8DDBF8"/>
<stop offset="1" stop-color="#178FBB"/>
</linearGradient>
<linearGradient id="paint31_linear_28_91" x1="364" y1="244.5" x2="352.5" y2="236" gradientUnits="userSpaceOnUse">
<stop stop-color="#8AD3EE"/>
<stop offset="1" stop-color="#31A5CF"/>
</linearGradient>
<linearGradient id="paint32_linear_28_91" x1="339.5" y1="256.5" x2="335.5" y2="237" gradientUnits="userSpaceOnUse">
<stop stop-color="#7CDCFF"/>
<stop offset="1" stop-color="#1998C7"/>
</linearGradient>
<linearGradient id="paint33_linear_28_91" x1="337" y1="257.5" x2="340" y2="276.5" gradientUnits="userSpaceOnUse">
<stop stop-color="#94DEF9"/>
<stop offset="1" stop-color="#227898"/>
</linearGradient>
<linearGradient id="paint34_linear_28_91" x1="183.5" y1="332" x2="196" y2="304.5" gradientUnits="userSpaceOnUse">
<stop stop-color="#B3E9FD"/>
<stop offset="1" stop-color="#68BBD9"/>
</linearGradient>
<linearGradient id="paint35_linear_28_91" x1="162" y1="319.5" x2="153.5" y2="304" gradientUnits="userSpaceOnUse">
<stop stop-color="#76D6F9"/>
<stop offset="1" stop-color="#65B8D6"/>
</linearGradient>
<linearGradient id="paint36_linear_28_91" x1="214" y1="365" x2="235.5" y2="353.5" gradientUnits="userSpaceOnUse">
<stop stop-color="#68D7FF"/>
<stop offset="1" stop-color="#45B1D7"/>
</linearGradient>
<linearGradient id="paint37_linear_28_91" x1="218.5" y1="402" x2="237.5" y2="411" gradientUnits="userSpaceOnUse">
<stop stop-color="#74D1F3"/>
<stop offset="1" stop-color="#3CACD2"/>
</linearGradient>
<linearGradient id="paint38_linear_28_91" x1="220.5" y1="400.5" x2="203" y2="394.5" gradientUnits="userSpaceOnUse">
<stop stop-color="#7CDCFF"/>
<stop offset="1" stop-color="#3FACD3"/>
</linearGradient>
<linearGradient id="paint39_linear_28_91" x1="159.5" y1="445" x2="174" y2="392.5" gradientUnits="userSpaceOnUse">
<stop stop-color="#A7E6FD"/>
<stop offset="1" stop-color="#2FA3CD"/>
</linearGradient>
<linearGradient id="paint40_linear_28_91" x1="207" y1="430.5" x2="193.5" y2="408" gradientUnits="userSpaceOnUse">
<stop stop-color="#8AE0FF"/>
<stop offset="1" stop-color="#259CC5"/>
</linearGradient>
<linearGradient id="paint41_linear_28_91" x1="208" y1="434" x2="233" y2="440" gradientUnits="userSpaceOnUse">
<stop stop-color="#94E3FF"/>
<stop offset="1" stop-color="#1E97C1"/>
</linearGradient>
<linearGradient id="paint42_linear_28_91" x1="189" y1="450" x2="207.5" y2="479.5" gradientUnits="userSpaceOnUse">
<stop stop-color="#92E2FF"/>
<stop offset="0.935" stop-color="#32A1CA"/>
<stop offset="1" stop-color="#4B8499"/>
</linearGradient>
<linearGradient id="paint43_linear_28_91" x1="164" y1="459" x2="166.5" y2="496" gradientUnits="userSpaceOnUse">
<stop stop-color="#7CDCFF"/>
<stop offset="1" stop-color="#2595BD"/>
</linearGradient>
<linearGradient id="paint44_linear_28_91" x1="162" y1="456" x2="133.5" y2="473.5" gradientUnits="userSpaceOnUse">
<stop stop-color="#A3E6FF"/>
<stop offset="1" stop-color="#599EB7"/>
</linearGradient>
<linearGradient id="paint45_linear_28_91" x1="102.5" y1="398" x2="82" y2="418.5" gradientUnits="userSpaceOnUse">
<stop stop-color="#7CDCFF"/>
<stop offset="1" stop-color="#4B8499"/>
</linearGradient>
<linearGradient id="paint46_linear_28_91" x1="98.5" y1="392.5" x2="122" y2="368" gradientUnits="userSpaceOnUse">
<stop stop-color="#7CDCFF"/>
<stop offset="1" stop-color="#1B8DB7"/>
</linearGradient>
<linearGradient id="paint47_linear_28_91" x1="31" y1="343.5" x2="6.30922e-06" y2="326" gradientUnits="userSpaceOnUse">
<stop stop-color="#8DE1FF"/>
<stop offset="1" stop-color="#58A1BC"/>
</linearGradient>
<linearGradient id="paint48_linear_28_91" x1="32" y1="343" x2="7.50001" y2="371.5" gradientUnits="userSpaceOnUse">
<stop stop-color="#89D7F2"/>
<stop offset="1" stop-color="#54B2D5"/>
</linearGradient>
<linearGradient id="paint49_linear_28_91" x1="33.5" y1="345" x2="38.5" y2="392" gradientUnits="userSpaceOnUse">
<stop stop-color="#9AD8EF"/>
<stop offset="1" stop-color="#54B2D5"/>
</linearGradient>
<linearGradient id="paint50_linear_28_91" x1="32" y1="343" x2="72" y2="315.5" gradientUnits="userSpaceOnUse">
<stop stop-color="#ABE9FF"/>
<stop offset="1" stop-color="#6ABDDB"/>
</linearGradient>
<linearGradient id="paint51_linear_28_91" x1="341.5" y1="282.5" x2="359" y2="304" gradientUnits="userSpaceOnUse">
<stop stop-color="#217898"/>
<stop offset="1" stop-color="#6ACEF2"/>
</linearGradient>
<linearGradient id="paint52_linear_28_91" x1="372.5" y1="295.5" x2="393" y2="270.5" gradientUnits="userSpaceOnUse">
<stop stop-color="#88D3EF"/>
<stop offset="1" stop-color="#4B9DBB"/>
</linearGradient>
<linearGradient id="paint53_linear_28_91" x1="338" y1="310.5" x2="320" y2="316" gradientUnits="userSpaceOnUse">
<stop stop-color="#7CDCFF"/>
<stop offset="1" stop-color="#4495B4"/>
</linearGradient>
<linearGradient id="paint54_linear_28_91" x1="349.5" y1="295.5" x2="376.5" y2="323.5" gradientUnits="userSpaceOnUse">
<stop stop-color="#7CDCFF"/>
<stop offset="1" stop-color="#2B9CC5"/>
</linearGradient>
<linearGradient id="paint55_linear_28_91" x1="358.5" y1="356.5" x2="373" y2="316.5" gradientUnits="userSpaceOnUse">
<stop stop-color="#84D0EB"/>
<stop offset="0.917213" stop-color="#36A4CD"/>
</linearGradient>
<linearGradient id="paint56_linear_28_91" x1="322.5" y1="370" x2="368" y2="369.5" gradientUnits="userSpaceOnUse">
<stop offset="0.235" stop-color="#48A0C0"/>
<stop offset="0.59" stop-color="#75C3E0"/>
<stop offset="1" stop-color="#A3E6FF"/>
</linearGradient>
<linearGradient id="paint57_linear_28_91" x1="379" y1="378" x2="417" y2="373" gradientUnits="userSpaceOnUse">
<stop stop-color="#87D5F1"/>
<stop offset="0.795166" stop-color="#37A1C7"/>
</linearGradient>
<linearGradient id="paint58_linear_28_91" x1="366" y1="385.5" x2="370" y2="396.5" gradientUnits="userSpaceOnUse">
<stop stop-color="#94DBF5"/>
<stop offset="1" stop-color="#3F9DBF"/>
</linearGradient>
<linearGradient id="paint59_linear_28_91" x1="275.5" y1="335" x2="247.5" y2="359.5" gradientUnits="userSpaceOnUse">
<stop stop-color="#A4E7FF"/>
<stop offset="1" stop-color="#3F9DBF"/>
</linearGradient>
<linearGradient id="paint60_linear_28_91" x1="259" y1="293" x2="243.5" y2="245" gradientUnits="userSpaceOnUse">
<stop stop-color="#7CDCFF"/>
<stop offset="1" stop-color="#4B8499"/>
</linearGradient>
<linearGradient id="paint61_linear_28_91" x1="252" y1="306.5" x2="308" y2="274.5" gradientUnits="userSpaceOnUse">
<stop stop-color="#A4E7FF"/>
<stop offset="0.474597" stop-color="#7CDCFF"/>
<stop offset="0.842876" stop-color="#2F8DAF"/>
</linearGradient>
<linearGradient id="paint62_linear_28_91" x1="282" y1="393.5" x2="354" y2="416.5" gradientUnits="userSpaceOnUse">
<stop stop-color="#A4E7FF"/>
<stop offset="0.310438" stop-color="#7CDCFF"/>
<stop offset="1" stop-color="#4B8499"/>
</linearGradient>
<linearGradient id="paint63_linear_28_91" x1="297" y1="380" x2="267" y2="382" gradientUnits="userSpaceOnUse">
<stop stop-color="#ADE7FC"/>
<stop offset="1" stop-color="#5FB4D3"/>
</linearGradient>
<linearGradient id="paint64_linear_28_91" x1="293" y1="462" x2="255" y2="493" gradientUnits="userSpaceOnUse">
<stop stop-color="#8BD1EA"/>
<stop offset="1" stop-color="#5FB4D3"/>
</linearGradient>
<linearGradient id="paint65_linear_28_91" x1="316" y1="469.5" x2="299" y2="509" gradientUnits="userSpaceOnUse">
<stop stop-color="#9FE6FF"/>
<stop offset="1" stop-color="#55A6C4"/>
</linearGradient>
<linearGradient id="paint66_linear_28_91" x1="329" y1="461.5" x2="348.5" y2="492.5" gradientUnits="userSpaceOnUse">
<stop stop-color="#83D6F5"/>
<stop offset="1" stop-color="#5391A8"/>
</linearGradient>
<linearGradient id="paint67_linear_28_91" x1="365.5" y1="436.5" x2="353.5" y2="411.5" gradientUnits="userSpaceOnUse">
<stop stop-color="#9AE1FB"/>
<stop offset="1" stop-color="#77D3F4"/>
</linearGradient>
<linearGradient id="paint68_linear_28_91" x1="403" y1="417" x2="417.5" y2="411" gradientUnits="userSpaceOnUse">
<stop stop-color="#7CDCFF"/>
<stop offset="1" stop-color="#4B8499"/>
</linearGradient>
<linearGradient id="paint69_linear_28_91" x1="351" y1="442.5" x2="370" y2="469.5" gradientUnits="userSpaceOnUse">
<stop stop-color="#7CDCFF"/>
<stop offset="1" stop-color="#5797AF"/>
</linearGradient>
<linearGradient id="paint70_linear_28_91" x1="382.5" y1="424.5" x2="396" y2="441" gradientUnits="userSpaceOnUse">
<stop stop-color="#8FD3EC"/>
<stop offset="1" stop-color="#5FB4D3"/>
</linearGradient>
<linearGradient id="paint71_linear_28_91" x1="294" y1="463.5" x2="318.5" y2="422" gradientUnits="userSpaceOnUse">
<stop stop-color="#90E2FF"/>
<stop offset="1" stop-color="#71C9E9"/>
</linearGradient>
<linearGradient id="paint72_linear_28_91" x1="313.5" y1="429" x2="331" y2="455" gradientUnits="userSpaceOnUse">
<stop stop-color="#6DC1E0"/>
<stop offset="1" stop-color="#8BDEFC"/>
</linearGradient>
<linearGradient id="paint73_linear_28_91" x1="183" y1="332" x2="169.5" y2="361.5" gradientUnits="userSpaceOnUse">
<stop stop-color="#95E0FB"/>
<stop offset="1" stop-color="#6EBCD8"/>
</linearGradient>
</defs>
</svg>
